<?xml version="1.0" encoding="UTF-8"?>
<svg id="Layer_1" data-name="Layer 1" xmlns="http://www.w3.org/2000/svg" viewBox="0 0 303.52 67.61">
  <defs>
    <style>
      .cls-1 {
        fill: none;
        stroke: #11cdee;
        stroke-miterlimit: 10;
      }

      .cls-2 {
        fill: #000;
      }

      .cls-2, .cls-3 {
        stroke-width: 0px;
      }

      .cls-3 {
        fill: #11cdee;
      }
    </style>
  </defs>
  <path class="cls-2" d="M15.18,47.06c3.68.94,5.93.29,6.3-3.85.2-2.27,1.61-4.45,1.68-6.69.09-2.92-1.1-5.31-4.86-4.86-1.35.16-2.87.38-4.07-.08-1.22-.46-3.01-1.69-3.04-2.63-.23-8.2-.21-16.41.02-24.61.02-.87,1.82-2.41,2.81-2.42,12.22-.17,24.44-.21,36.65.04,1.27.03,2.49,2.15,4.37,3.88.87-.58,2.57-1.87,4.42-2.9.99-.55,2.47-1.19,3.29-.82.85.39,1.6,1.94,1.62,2.99.13,7.71.13,15.42,0,23.13-.02,1.08-.72,2.81-1.49,3.06-1.02.33-2.53-.3-3.62-.9-1.7-.94-3.23-2.19-5.36-3.68.02,5.15-3.04,5.22-6.47,4.99-2.48-.17-4.98-.05-7.48-.03-2.85.02-6.26-.93-6.42,3.81-.02.56-1.17,1.38-1.92,1.55-3.91.88-4.11,4.39-5.28,7.19-.75,1.81-1.5,3.65-1.95,5.54-.66,2.79-2.45,3.4-4.98,3.16-1.34-.13-2.69-.02-4.16-.02-.13,1.09-.19,1.81-.3,2.52-.34,2.28,1.18,5.81-2.14,6.32-3.78.59-7.78-.09-11.67-.46-.43-.04-1.01-1.63-1.03-2.51-.09-5.6-.25-11.21.1-16.78.08-1.28,2.01-2.51,3.23-3.6.35-.31,1.21-.1,1.83-.08,9.13.24,9.49-1.72,9.91,8.75ZM15.96,7.53v6.1h32.53v-6.1H15.96Z"/>
  <g>
    <path class="cls-2" d="M87.46,24.02l6.34-20.04h2.32l6.73,20.04h-2.49l-1.91-6.07h-6.91l-1.79,6.07h-2.29ZM92.17,15.79h5.6l-1.71-5.55c-.53-1.7-.92-3.09-1.16-4.16-.21,1.29-.51,2.56-.9,3.83l-1.83,5.88Z"/>
    <path class="cls-2" d="M104.64,24.02V3.98h2.01v20.04h-2.01Z"/>
    <path class="cls-2" d="M112.07,24.02h-1.87V3.98h2.02v7.15c.43-.66.91-1.15,1.46-1.47.54-.32,1.15-.49,1.81-.49.93,0,1.77.28,2.54.83.76.56,1.37,1.4,1.83,2.53.46,1.13.68,2.5.68,4.12,0,2.46-.52,4.36-1.55,5.69-1.03,1.34-2.24,2-3.62,2-.69,0-1.32-.18-1.87-.54-.55-.36-1.03-.9-1.43-1.61v1.82ZM112.04,16.65c0,1.5.14,2.63.41,3.38.27.75.66,1.32,1.17,1.71.5.39,1.06.59,1.67.59.83,0,1.57-.47,2.21-1.4.64-.93.97-2.33.97-4.19s-.31-3.3-.93-4.2c-.62-.89-1.38-1.34-2.29-1.34-.83,0-1.57.47-2.23,1.4-.65.93-.98,2.29-.98,4.05Z"/>
    <path class="cls-3" d="M131.21,24.02v-2.13c-.46.82-1.01,1.44-1.64,1.85s-1.34.62-2.13.62c-.94,0-1.74-.25-2.41-.76-.67-.51-1.11-1.15-1.33-1.92-.22-.77-.33-1.83-.33-3.17v-9h2.01v8.05c0,1.5.08,2.5.23,3s.43.91.83,1.22c.41.31.87.46,1.39.46.97,0,1.76-.4,2.38-1.19.53-.68.79-1.94.79-3.76v-7.78h2.02v14.52h-1.8Z"/>
    <path class="cls-2" d="M135.83,19.68l2.01-.38c.12,1.03.44,1.79.97,2.29s1.23.75,2.1.75,1.55-.22,2.03-.65c.48-.43.72-.98.72-1.65,0-.57-.21-1.02-.62-1.34-.28-.22-.97-.49-2.05-.82-1.57-.48-2.62-.89-3.14-1.23-.53-.34-.94-.79-1.23-1.35-.29-.56-.44-1.21-.44-1.93,0-1.24.4-2.25,1.19-3.02.79-.77,1.89-1.16,3.29-1.16.88,0,1.66.16,2.33.48.67.32,1.18.75,1.54,1.29.36.54.6,1.31.74,2.31l-1.97.33c-.18-1.59-1.04-2.38-2.58-2.38-.88,0-1.53.17-1.96.52-.43.35-.64.8-.64,1.34s.21.96.62,1.27c.25.18.98.47,2.19.87,1.67.53,2.75.95,3.24,1.27.49.31.87.74,1.14,1.29.27.54.41,1.19.41,1.94,0,1.39-.44,2.51-1.32,3.37-.88.86-2.08,1.29-3.6,1.29-2.85,0-4.51-1.56-4.96-4.68Z"/>
    <path class="cls-2" d="M89.18,59.02v-20.04h6.17c1.25,0,2.24.19,2.97.58.73.39,1.33.99,1.79,1.81.47.82.7,1.73.7,2.72,0,.92-.2,1.75-.6,2.49-.4.74-.97,1.33-1.7,1.78.95.35,1.7.94,2.25,1.77.55.83.82,1.86.82,3.08s-.25,2.28-.75,3.19c-.5.92-1.16,1.58-1.99,2-.83.42-1.97.62-3.42.62h-6.26ZM91.35,47.4h3.56c.93,0,1.59-.06,1.99-.19.57-.19,1-.51,1.31-.96.31-.45.46-1.06.46-1.84,0-.72-.14-1.32-.42-1.8-.28-.48-.65-.81-1.11-.99-.46-.18-1.29-.27-2.49-.27h-3.3v6.06ZM91.35,56.66h4.09c.9,0,1.57-.08,2-.25.62-.24,1.09-.63,1.42-1.17s.49-1.22.49-2.04c0-.76-.16-1.4-.47-1.92-.31-.52-.73-.91-1.25-1.15-.53-.24-1.35-.36-2.47-.36h-3.81v6.89Z"/>
    <path class="cls-2" d="M112.84,54.35l2.08.31c-.35,1.55-.97,2.72-1.88,3.51-.91.79-2.03,1.18-3.37,1.18-1.69,0-3.05-.64-4.09-1.92-1.04-1.28-1.57-3.13-1.57-5.54s.53-4.42,1.58-5.74c1.05-1.32,2.39-1.98,4-1.98s2.83.65,3.86,1.94c1.03,1.29,1.54,3.17,1.54,5.62v.66h-8.9c.08,1.63.46,2.86,1.13,3.69.67.83,1.49,1.24,2.46,1.24,1.51,0,2.57-.99,3.16-2.98ZM106.21,50.37h6.64c-.09-1.26-.36-2.2-.81-2.82-.65-.9-1.47-1.35-2.47-1.35-.9,0-1.67.38-2.31,1.13-.64.75-.99,1.77-1.05,3.04Z"/>
    <path class="cls-2" d="M121.22,59.02l-4.53-14.52h2.13l2.56,8.7c.29.98.55,1.96.77,2.93.17-.77.42-1.69.74-2.76l2.66-8.86h2.08l-4.53,14.52h-1.88Z"/>
    <path class="cls-2" d="M137.94,54.35l2.08.31c-.35,1.55-.97,2.72-1.88,3.51-.91.79-2.03,1.18-3.37,1.18-1.69,0-3.05-.64-4.09-1.92-1.04-1.28-1.57-3.13-1.57-5.54s.53-4.42,1.58-5.74c1.05-1.32,2.39-1.98,4-1.98s2.83.65,3.86,1.94c1.03,1.29,1.54,3.17,1.54,5.62v.66h-8.9c.08,1.63.46,2.86,1.13,3.69.67.83,1.49,1.24,2.46,1.24,1.51,0,2.57-.99,3.16-2.98ZM131.3,50.37h6.64c-.09-1.26-.36-2.2-.81-2.82-.65-.9-1.47-1.35-2.47-1.35-.9,0-1.67.38-2.31,1.13-.64.75-.99,1.77-1.05,3.04Z"/>
    <path class="cls-2" d="M142.99,41.81v-2.83h2.01v2.83h-2.01ZM142.99,59.02v-14.52h2.01v14.52h-2.01Z"/>
    <path class="cls-2" d="M148.44,59.02v-20.04h2.01v20.04h-2.01Z"/>
    <path class="cls-2" d="M154.03,41.81v-2.83h2.01v2.83h-2.01ZM154.03,59.02v-14.52h2.01v14.52h-2.01Z"/>
    <path class="cls-2" d="M159.15,60.23l1.97.36c.09.78.36,1.36.82,1.74.46.38,1.09.57,1.9.57.88,0,1.59-.21,2.11-.64s.88-1.06,1.07-1.89c.12-.51.18-1.59.18-3.23-.44.62-.93,1.1-1.48,1.41-.55.32-1.15.48-1.82.48-1.42,0-2.6-.6-3.54-1.8-1.08-1.39-1.61-3.24-1.61-5.56,0-1.56.24-2.92.71-4.09s1.1-2.02,1.87-2.57,1.63-.82,2.59-.82c.7,0,1.34.17,1.92.52s1.09.86,1.54,1.55v-1.74h1.86v12.55c0,2.23-.18,3.83-.55,4.78s-.96,1.7-1.79,2.26-1.83.83-2.99.83c-1.54,0-2.73-.42-3.55-1.24s-1.23-1.98-1.2-3.45ZM160.82,51.5c0,1.91.32,3.3.95,4.18s1.4,1.32,2.32,1.32,1.69-.43,2.33-1.29c.64-.86.96-2.23.96-4.1s-.33-3.19-.99-4.08c-.66-.89-1.46-1.34-2.4-1.34-.84,0-1.58.45-2.21,1.34-.63.89-.95,2.21-.95,3.97Z"/>
    <path class="cls-2" d="M172.74,41.81v-2.83h2.01v2.83h-2.01ZM172.74,59.02v-14.52h2.01v14.52h-2.01Z"/>
    <path class="cls-2" d="M178.26,59.02v-14.52h1.82v2.05c.44-.8.97-1.39,1.6-1.79.63-.39,1.36-.59,2.18-.59.64,0,1.23.13,1.77.38.54.25.98.58,1.31.98s.58.93.74,1.58c.16.65.25,1.64.25,2.98v8.93h-2.01v-8.84c0-1.07-.09-1.85-.27-2.34-.18-.49-.47-.87-.85-1.14-.39-.27-.84-.4-1.35-.4-.97,0-1.74.36-2.31,1.08s-.86,1.96-.86,3.71v7.94h-2.01Z"/>
    <path class="cls-2" d="M191.05,60.23l1.97.36c.09.78.36,1.36.82,1.74.46.38,1.09.57,1.9.57.88,0,1.59-.21,2.11-.64s.88-1.06,1.07-1.89c.12-.51.18-1.59.18-3.23-.44.62-.93,1.1-1.48,1.41-.55.32-1.15.48-1.82.48-1.42,0-2.6-.6-3.54-1.8-1.08-1.39-1.61-3.24-1.61-5.56,0-1.56.24-2.92.71-4.09s1.1-2.02,1.87-2.57,1.63-.82,2.59-.82c.7,0,1.34.17,1.92.52s1.09.86,1.54,1.55v-1.74h1.86v12.55c0,2.23-.18,3.83-.55,4.78s-.96,1.7-1.79,2.26-1.83.83-2.99.83c-1.54,0-2.73-.42-3.55-1.24s-1.23-1.98-1.2-3.45ZM192.72,51.5c0,1.91.32,3.3.95,4.18s1.4,1.32,2.32,1.32,1.69-.43,2.33-1.29c.64-.86.96-2.23.96-4.1s-.33-3.19-.99-4.08c-.66-.89-1.46-1.34-2.4-1.34-.84,0-1.58.45-2.21,1.34-.63.89-.95,2.21-.95,3.97Z"/>
    <path class="cls-2" d="M203.86,54.68l2.01-.38c.12,1.03.44,1.79.97,2.29.53.5,1.23.75,2.1.75s1.55-.22,2.03-.65c.48-.43.72-.98.72-1.65,0-.57-.21-1.02-.62-1.34-.28-.22-.97-.49-2.05-.82-1.57-.48-2.62-.89-3.14-1.23s-.94-.79-1.23-1.35-.44-1.21-.44-1.93c0-1.24.4-2.25,1.19-3.02s1.89-1.16,3.29-1.16c.88,0,1.66.16,2.33.48s1.18.75,1.54,1.29.6,1.31.74,2.31l-1.97.33c-.18-1.59-1.04-2.38-2.58-2.38-.88,0-1.53.17-1.96.52s-.64.8-.64,1.34.21.96.62,1.27c.25.18.98.47,2.19.87,1.67.53,2.75.95,3.24,1.27.49.32.87.74,1.14,1.29.27.54.41,1.19.41,1.94,0,1.39-.44,2.51-1.32,3.37s-2.08,1.29-3.6,1.29c-2.85,0-4.51-1.56-4.96-4.68Z"/>
    <path class="cls-2" d="M221.03,56.82l.27,2.17c-.56.15-1.06.22-1.5.22-.7,0-1.27-.14-1.7-.42s-.72-.66-.88-1.14-.24-1.44-.24-2.88v-8.35h-1.48v-1.91h1.48v-3.6l2.01-1.48v5.07h2.04v1.91h-2.04v8.49c0,.78.06,1.29.18,1.52.17.33.5.49.97.49.23,0,.52-.03.89-.1Z"/>
    <path class="cls-2" d="M231.48,54.35l2.08.31c-.35,1.55-.97,2.72-1.88,3.51s-2.03,1.18-3.37,1.18c-1.69,0-3.05-.64-4.09-1.92s-1.57-3.13-1.57-5.54.53-4.42,1.58-5.74c1.05-1.32,2.39-1.98,4-1.98s2.83.65,3.86,1.94,1.54,3.17,1.54,5.62v.66h-8.9c.08,1.63.46,2.86,1.13,3.69s1.5,1.24,2.46,1.24c1.51,0,2.57-.99,3.16-2.98ZM224.85,50.37h6.64c-.09-1.26-.36-2.2-.81-2.82-.65-.9-1.47-1.35-2.47-1.35-.9,0-1.67.38-2.31,1.13s-.99,1.77-1.05,3.04Z"/>
    <path class="cls-2" d="M244.33,53.71l1.98.31c-.23,1.73-.8,3.05-1.72,3.96s-2.02,1.37-3.3,1.37c-1.56,0-2.84-.64-3.85-1.92s-1.51-3.17-1.51-5.68.51-4.42,1.52-5.68c1.02-1.26,2.32-1.89,3.92-1.89,1.23,0,2.27.38,3.11,1.15s1.38,1.91,1.62,3.45l-1.96.36c-.19-.98-.52-1.71-1-2.2-.47-.49-1.04-.73-1.71-.73-.99,0-1.82.44-2.47,1.32s-.98,2.28-.98,4.19.31,3.41.94,4.29,1.42,1.33,2.4,1.33c.77,0,1.42-.29,1.96-.88s.89-1.5,1.03-2.74Z"/>
    <path class="cls-2" d="M248.44,59.02v-20.04h2.01v7.19c.47-.67,1.01-1.16,1.61-1.5.6-.33,1.26-.5,1.98-.5,1.27,0,2.27.4,3,1.21s1.1,2.29,1.1,4.44v9.2h-2.01v-9.2c0-1.26-.22-2.16-.67-2.71s-1.06-.82-1.85-.82c-.88,0-1.62.35-2.24,1.05s-.92,1.95-.92,3.73v7.94h-2.01Z"/>
    <path class="cls-2" d="M261.63,59.02v-14.52h1.82v2.05c.44-.8.97-1.39,1.6-1.79.63-.39,1.36-.59,2.18-.59.64,0,1.23.13,1.77.38.54.25.98.58,1.31.98s.58.93.74,1.58c.16.65.25,1.64.25,2.98v8.93h-2.01v-8.84c0-1.07-.09-1.85-.27-2.34-.18-.49-.47-.87-.85-1.14-.39-.27-.84-.4-1.35-.4-.97,0-1.74.36-2.31,1.08s-.86,1.96-.86,3.71v7.94h-2.01Z"/>
    <path class="cls-2" d="M274.82,41.81v-2.83h2.01v2.83h-2.01ZM274.82,59.02v-14.52h2.01v14.52h-2.01Z"/>
    <path class="cls-2" d="M288.47,54.35l2.08.31c-.35,1.55-.97,2.72-1.88,3.51s-2.03,1.18-3.37,1.18c-1.69,0-3.05-.64-4.09-1.92s-1.57-3.13-1.57-5.54.53-4.42,1.58-5.74c1.05-1.32,2.39-1.98,4-1.98s2.83.65,3.86,1.94,1.54,3.17,1.54,5.62v.66h-8.9c.08,1.63.46,2.86,1.13,3.69s1.5,1.24,2.46,1.24c1.51,0,2.57-.99,3.16-2.98ZM281.84,50.37h6.64c-.09-1.26-.36-2.2-.81-2.82-.65-.9-1.47-1.35-2.47-1.35-.9,0-1.67.38-2.31,1.13s-.99,1.77-1.05,3.04Z"/>
    <path class="cls-2" d="M293.57,59.02v-20.04h2.01v11.45l4.79-5.92h2.61l-4.55,5.39,5.01,9.13h-2.47l-3.96-7.44-1.42,1.69v5.76h-2.01Z"/>
  </g>
  <line class="cls-1" x1="76.68" y1="3.98" x2="76.68" y2="59.02"/>
</svg>